<svg xmlns="http://www.w3.org/2000/svg" xmlns:xlink="http://www.w3.org/1999/xlink" width="500" zoomAndPan="magnify" viewBox="0 0 375 374.999991" height="500" preserveAspectRatio="xMidYMid meet" version="1.0"><defs><g/><clipPath id="5bc8bca82d"><path d="M 184 152 L 205 152 L 205 190.589844 L 184 190.589844 Z M 184 152 " clip-rule="nonzero"/></clipPath><clipPath id="e932803d37"><path d="M 170 132.089844 L 191 132.089844 L 191 170 L 170 170 Z M 170 132.089844 " clip-rule="nonzero"/></clipPath></defs><rect x="-37.5" width="450" fill="#ffffff" y="-37.499999" height="449.999989" fill-opacity="1"/><rect x="-37.5" width="450" fill="#ffffff" y="-37.499999" height="449.999989" fill-opacity="1"/><path fill="#000000" d="M 169.28125 147.121094 L 163.71875 143.90625 C 157.972656 153.859375 162.011719 166.945312 171.960938 172.691406 C 177.699219 176.003906 184.359375 176.273438 190.074219 173.996094 C 185.605469 174.648438 180.898438 173.855469 176.683594 171.425781 C 167.753906 166.269531 165.785156 156.46875 169.28125 147.121094 " fill-opacity="1" fill-rule="nonzero"/><path fill="#6d9b51" d="M 165.96875 170.070312 L 160.40625 173.28125 C 166.152344 183.230469 179.503906 186.277344 189.457031 180.53125 C 195.195312 177.21875 198.757812 171.585938 199.644531 165.5 C 197.972656 169.695312 194.933594 173.375 190.722656 175.808594 C 181.789062 180.964844 172.316406 177.769531 165.96875 170.070312 " fill-opacity="1" fill-rule="nonzero"/><g clip-path="url(#5bc8bca82d)"><path fill="#000000" d="M 184.1875 184.410156 L 184.1875 190.832031 C 195.679688 190.832031 204.992188 180.792969 204.992188 169.300781 C 204.992188 162.675781 201.894531 156.773438 197.070312 152.964844 C 199.867188 156.507812 201.535156 160.980469 201.535156 165.84375 C 201.535156 176.15625 194.03125 182.761719 184.1875 184.410156 " fill-opacity="1" fill-rule="nonzero"/></g><path fill="#6d9b51" d="M 205.71875 175.804688 L 211.28125 179.015625 C 217.027344 169.0625 212.988281 155.976562 203.035156 150.230469 C 197.296875 146.917969 190.636719 146.648438 184.925781 148.925781 C 189.390625 148.273438 194.101562 149.066406 198.3125 151.496094 C 207.242188 156.652344 209.214844 166.453125 205.71875 175.804688 " fill-opacity="1" fill-rule="nonzero"/><path fill="#000000" d="M 209.027344 152.855469 L 214.589844 149.644531 C 208.847656 139.691406 195.492188 136.648438 185.542969 142.390625 C 179.804688 145.703125 176.242188 151.339844 175.355469 157.421875 C 177.023438 153.230469 180.066406 149.546875 184.277344 147.113281 C 193.207031 141.957031 202.679688 145.152344 209.027344 152.855469 " fill-opacity="1" fill-rule="nonzero"/><g clip-path="url(#e932803d37)"><path fill="#6d9b51" d="M 190.808594 138.511719 L 190.808594 132.089844 C 179.320312 132.089844 170.007812 142.132812 170.007812 153.621094 C 170.007812 160.246094 173.105469 166.148438 177.929688 169.960938 C 175.132812 166.417969 173.464844 161.941406 173.464844 157.078125 C 173.464844 146.765625 180.964844 140.160156 190.808594 138.511719 " fill-opacity="1" fill-rule="nonzero"/></g><g fill="#000000" fill-opacity="1"><g transform="translate(148.578258, 216.382032)"><g><path d="M 1.46875 0 L 1.46875 -16.1875 L 12.984375 -16.1875 L 12.984375 -12.9375 L 5.578125 -12.9375 L 5.578125 -9.859375 L 12.515625 -9.859375 L 12.515625 -6.609375 L 5.578125 -6.609375 L 5.578125 -3.265625 L 12.984375 -3.265625 L 12.984375 0 Z M 1.46875 0 "/></g></g></g><g fill="#000000" fill-opacity="1"><g transform="translate(162.152807, 216.382032)"><g><path d="M 1.46875 0 L 1.46875 -16.1875 L 12.75 -16.1875 L 12.75 -12.890625 L 5.625 -12.890625 L 5.625 -9.90625 L 12.28125 -9.90625 L 12.28125 -6.59375 L 5.625 -6.59375 L 5.625 0 Z M 1.46875 0 "/></g></g></g><g fill="#000000" fill-opacity="1"><g transform="translate(175.290947, 216.382032)"><g><path d="M 16.03125 0 L 11.390625 0 L 8.59375 -5.171875 C 8.238281 -5.765625 7.675781 -6.0625 6.90625 -6.0625 L 5.625 -6.0625 L 5.625 0 L 1.46875 0 L 1.46875 -16.1875 L 9.1875 -16.1875 C 11.144531 -16.1875 12.617188 -15.757812 13.609375 -14.90625 C 14.597656 -14.0625 15.09375 -12.835938 15.09375 -11.234375 C 15.09375 -10.003906 14.753906 -8.960938 14.078125 -8.109375 C 13.398438 -7.265625 12.453125 -6.695312 11.234375 -6.40625 C 12.171875 -6.207031 12.910156 -5.601562 13.453125 -4.59375 Z M 8.515625 -9.234375 C 9.453125 -9.234375 10.125 -9.378906 10.53125 -9.671875 C 10.9375 -9.960938 11.140625 -10.4375 11.140625 -11.09375 C 11.140625 -11.769531 10.9375 -12.253906 10.53125 -12.546875 C 10.125 -12.847656 9.453125 -13 8.515625 -13 L 5.578125 -13 L 5.578125 -9.234375 Z M 8.515625 -9.234375 "/></g></g></g><g fill="#000000" fill-opacity="1"><g transform="translate(191.392065, 216.382032)"><g><path d="M 11.96875 -16.1875 L 15.921875 -16.1875 L 15.921875 0 L 12.796875 0 L 5.390625 -9.25 L 5.390625 0 L 1.46875 0 L 1.46875 -16.1875 L 4.546875 -16.1875 L 11.96875 -6.9375 Z M 11.96875 -16.1875 "/></g></g></g><g fill="#000000" fill-opacity="1"><g transform="translate(208.64162, 216.382032)"><g><path d="M 1.46875 -16.1875 L 8.0625 -16.1875 C 9.851562 -16.1875 11.394531 -15.863281 12.6875 -15.21875 C 13.976562 -14.582031 14.96875 -13.65625 15.65625 -12.4375 C 16.351562 -11.21875 16.703125 -9.773438 16.703125 -8.109375 C 16.703125 -6.421875 16.359375 -4.96875 15.671875 -3.75 C 14.992188 -2.53125 14.003906 -1.597656 12.703125 -0.953125 C 11.410156 -0.316406 9.863281 0 8.0625 0 L 1.46875 0 Z M 7.765625 -3.40625 C 9.359375 -3.40625 10.546875 -3.796875 11.328125 -4.578125 C 12.109375 -5.359375 12.5 -6.535156 12.5 -8.109375 C 12.5 -9.679688 12.109375 -10.851562 11.328125 -11.625 C 10.546875 -12.40625 9.359375 -12.796875 7.765625 -12.796875 L 5.703125 -12.796875 L 5.703125 -3.40625 Z M 7.765625 -3.40625 "/></g></g></g></svg>