<svg xmlns="http://www.w3.org/2000/svg" xmlns:xlink="http://www.w3.org/1999/xlink" width="500" zoomAndPan="magnify" viewBox="0 0 375 374.999991" height="500" preserveAspectRatio="xMidYMid meet" version="1.0"><defs><g/><clipPath id="7757c002b8"><path d="M 132.671875 96.296875 L 238 96.296875 L 238 167 L 132.671875 167 Z M 132.671875 96.296875 " clip-rule="nonzero"/></clipPath><clipPath id="37b669dd7e"><path d="M 137 136 L 242.171875 136 L 242.171875 205.796875 L 137 205.796875 Z M 137 136 " clip-rule="nonzero"/></clipPath></defs><rect x="-37.5" width="450" fill="#ffffff" y="-37.499999" height="449.999989" fill-opacity="1"/><rect x="-37.5" width="450" fill="#f2f1ec" y="-37.499999" height="449.999989" fill-opacity="1"/><g clip-path="url(#7757c002b8)"><path fill="#9cc100" d="M 141.390625 160.808594 C 141.992188 160.796875 142.578125 160.859375 143.136719 160.984375 C 143.957031 161.171875 144.800781 160.796875 145.179688 160.042969 C 145.207031 159.992188 145.234375 159.9375 145.261719 159.882812 C 146.101562 158.21875 147.203125 156.246094 148.613281 154.082031 C 150.027344 151.914062 151.75 149.550781 153.835938 147.121094 C 154.882812 145.90625 156.019531 144.675781 157.261719 143.453125 C 158.5 142.222656 159.859375 141.015625 161.382812 139.902344 C 162.910156 138.789062 164.597656 137.769531 166.449219 136.898438 C 167.375 136.464844 168.339844 136.0625 169.34375 135.714844 C 169.847656 135.539062 170.359375 135.378906 170.878906 135.226562 C 171.140625 135.15625 171.402344 135.082031 171.667969 135.019531 C 171.933594 134.949219 172.203125 134.886719 172.46875 134.828125 C 173.011719 134.710938 173.5625 134.613281 174.121094 134.535156 C 174.679688 134.457031 175.246094 134.402344 175.820312 134.378906 C 176.972656 134.328125 178.164062 134.402344 179.332031 134.679688 C 179.914062 134.816406 180.492188 135.003906 181.042969 135.246094 C 181.597656 135.488281 182.125 135.78125 182.617188 136.117188 C 183.113281 136.453125 183.570312 136.832031 183.992188 137.234375 C 184.414062 137.636719 184.800781 138.066406 185.15625 138.515625 C 185.867188 139.410156 186.445312 140.375 186.96875 141.351562 C 187.480469 142.335938 187.925781 143.339844 188.335938 144.359375 C 188.742188 145.375 189.113281 146.402344 189.457031 147.441406 C 189.636719 147.910156 189.816406 148.378906 189.996094 148.851562 L 190.5625 150.308594 L 191.140625 151.765625 L 191.574219 152.855469 L 191.609375 152.945312 C 191.613281 152.949219 191.648438 153.105469 191.640625 153.058594 L 191.660156 153.105469 L 191.859375 153.65625 C 191.882812 153.714844 191.902344 153.785156 191.925781 153.835938 L 191.992188 153.996094 C 192.078125 154.207031 192.160156 154.414062 192.257812 154.632812 C 192.4375 155.066406 192.625 155.492188 192.824219 155.902344 C 193.214844 156.726562 193.625 157.503906 194.058594 158.191406 C 194.496094 158.878906 194.945312 159.484375 195.398438 159.949219 C 195.625 160.179688 195.847656 160.386719 196.066406 160.546875 C 196.285156 160.707031 196.5 160.832031 196.707031 160.925781 C 197.121094 161.117188 197.503906 161.195312 197.953125 161.203125 C 198.402344 161.210938 198.925781 161.144531 199.515625 160.992188 C 199.808594 160.914062 200.113281 160.820312 200.433594 160.707031 C 200.75 160.589844 201.074219 160.457031 201.40625 160.3125 C 201.570312 160.234375 201.734375 160.160156 201.902344 160.074219 C 202.070312 160 202.238281 159.910156 202.410156 159.824219 C 202.578125 159.734375 202.746094 159.648438 202.914062 159.550781 L 203.171875 159.414062 L 203.425781 159.265625 C 204.109375 158.878906 204.792969 158.445312 205.476562 158 C 206.839844 157.109375 208.1875 156.136719 209.503906 155.152344 C 210.820312 154.164062 212.101562 153.15625 213.34375 152.15625 C 214.582031 151.15625 215.777344 150.15625 216.925781 149.1875 C 218.078125 148.214844 219.179688 147.269531 220.230469 146.363281 C 221.289062 145.453125 222.289062 144.589844 223.234375 143.777344 C 224.332031 142.828125 225.882812 141.503906 227 140.554688 C 227.734375 139.929688 227.894531 138.867188 227.394531 138.046875 C 226.699219 136.910156 226.316406 135.5625 226.367188 134.121094 C 226.488281 130.425781 229.5 127.417969 233.195312 127.296875 C 234.792969 127.242188 236.273438 127.722656 237.480469 128.566406 C 228.878906 109.539062 209.734375 96.300781 187.5 96.300781 C 157.21875 96.300781 132.675781 120.84375 132.675781 151.121094 C 132.675781 156.296875 133.394531 161.304688 134.734375 166.050781 C 135.53125 163.097656 138.214844 160.886719 141.390625 160.808594 " fill-opacity="1" fill-rule="nonzero"/></g><g clip-path="url(#37b669dd7e)"><path fill="#8cd8e8" d="M 240.261719 136.191406 C 239.460938 139.160156 236.765625 141.371094 233.578125 141.433594 C 233.242188 141.441406 232.914062 141.425781 232.59375 141.386719 C 231.808594 141.292969 231.046875 141.703125 230.671875 142.398438 C 229.898438 143.832031 228.632812 146.136719 227.710938 147.605469 C 226.332031 149.800781 224.667969 152.210938 222.660156 154.726562 C 221.660156 155.984375 220.566406 157.265625 219.375 158.554688 C 218.183594 159.84375 216.894531 161.140625 215.46875 162.410156 C 214.039062 163.675781 212.476562 164.914062 210.71875 166.054688 C 209.835938 166.625 208.910156 167.171875 207.910156 167.675781 C 207.414062 167.929688 206.894531 168.164062 206.363281 168.394531 C 205.828125 168.621094 205.277344 168.835938 204.703125 169.027344 C 204.125 169.222656 203.53125 169.402344 202.90625 169.546875 C 202.28125 169.695312 201.632812 169.816406 200.957031 169.898438 C 199.605469 170.0625 198.121094 170.0625 196.601562 169.761719 C 195.84375 169.613281 195.078125 169.386719 194.34375 169.078125 C 193.609375 168.769531 192.90625 168.382812 192.261719 167.9375 C 191.617188 167.492188 191.035156 166.992188 190.511719 166.464844 C 189.992188 165.933594 189.542969 165.375 189.140625 164.804688 C 188.34375 163.664062 187.78125 162.484375 187.347656 161.320312 C 186.917969 160.152344 186.628906 158.992188 186.417969 157.847656 C 186.363281 157.5625 186.324219 157.277344 186.28125 156.992188 C 186.234375 156.707031 186.207031 156.421875 186.167969 156.140625 C 186.148438 156 186.136719 155.859375 186.121094 155.710938 L 186.078125 155.273438 L 186.058594 155.054688 C 186.050781 154.980469 186.050781 154.921875 186.042969 154.855469 L 186.023438 154.464844 L 186.011719 154.269531 L 186.007812 154.222656 C 185.996094 154.144531 186.027344 154.269531 186.019531 154.242188 L 186.011719 154.140625 L 185.984375 153.753906 L 185.921875 152.972656 L 185.800781 151.410156 L 185.671875 149.851562 L 185.601562 149.070312 L 185.5625 148.683594 L 185.554688 148.585938 C 185.554688 148.585938 185.523438 148.421875 185.535156 148.46875 L 185.53125 148.421875 L 185.519531 148.238281 C 185.457031 147.253906 185.339844 146.277344 185.152344 145.324219 C 184.960938 144.375 184.703125 143.445312 184.355469 142.570312 C 184.003906 141.699219 183.570312 140.875 183.03125 140.164062 C 182.757812 139.8125 182.472656 139.480469 182.15625 139.191406 C 181.839844 138.90625 181.5 138.65625 181.140625 138.449219 C 180.425781 138.039062 179.640625 137.820312 178.839844 137.789062 C 178.039062 137.757812 177.222656 137.894531 176.433594 138.164062 C 176.039062 138.296875 175.652344 138.460938 175.269531 138.644531 C 174.890625 138.832031 174.515625 139.042969 174.148438 139.265625 C 173.785156 139.492188 173.425781 139.734375 173.078125 139.988281 C 172.726562 140.246094 172.382812 140.503906 172.046875 140.777344 C 171.371094 141.324219 170.722656 141.902344 170.085938 142.480469 C 168.8125 143.644531 167.589844 144.832031 166.371094 145.972656 C 165.761719 146.539062 165.15625 147.101562 164.550781 147.652344 C 163.949219 148.203125 163.339844 148.738281 162.746094 149.269531 C 161.558594 150.335938 160.410156 151.386719 159.300781 152.402344 C 158.1875 153.421875 157.117188 154.398438 156.101562 155.324219 C 155.078125 156.257812 154.097656 157.144531 153.171875 157.972656 C 151.3125 159.636719 149.648438 161.074219 148.25 162.246094 L 148.238281 162.253906 C 147.570312 162.8125 147.375 163.761719 147.789062 164.527344 C 148.351562 165.566406 148.660156 166.757812 148.632812 168.027344 C 148.558594 171.761719 145.53125 174.828125 141.800781 174.949219 C 140.203125 175 138.722656 174.523438 137.515625 173.679688 C 146.117188 192.707031 165.261719 205.945312 187.5 205.945312 C 217.777344 205.945312 242.320312 181.402344 242.320312 151.121094 C 242.320312 145.945312 241.601562 140.941406 240.261719 136.191406 " fill-opacity="1" fill-rule="nonzero"/></g><g fill="#2b3825" fill-opacity="1"><g transform="translate(130.207862, 245.419745)"><g><path d="M 9.578125 0.359375 C 7.878906 0.359375 6.238281 0.128906 4.65625 -0.328125 C 3.082031 -0.785156 1.816406 -1.378906 0.859375 -2.109375 L 2.546875 -5.84375 C 3.460938 -5.164062 4.550781 -4.625 5.8125 -4.21875 C 7.070312 -3.8125 8.335938 -3.609375 9.609375 -3.609375 C 11.015625 -3.609375 12.050781 -3.816406 12.71875 -4.234375 C 13.394531 -4.648438 13.734375 -5.207031 13.734375 -5.90625 C 13.734375 -6.414062 13.535156 -6.835938 13.140625 -7.171875 C 12.742188 -7.503906 12.234375 -7.773438 11.609375 -7.984375 C 10.984375 -8.191406 10.144531 -8.414062 9.09375 -8.65625 C 7.457031 -9.039062 6.117188 -9.425781 5.078125 -9.8125 C 4.035156 -10.207031 3.140625 -10.832031 2.390625 -11.6875 C 1.648438 -12.539062 1.28125 -13.679688 1.28125 -15.109375 C 1.28125 -16.359375 1.613281 -17.488281 2.28125 -18.5 C 2.957031 -19.507812 3.972656 -20.304688 5.328125 -20.890625 C 6.691406 -21.484375 8.351562 -21.78125 10.3125 -21.78125 C 11.675781 -21.78125 13.007812 -21.613281 14.3125 -21.28125 C 15.625 -20.957031 16.769531 -20.492188 17.75 -19.890625 L 16.21875 -16.125 C 14.238281 -17.25 12.257812 -17.8125 10.28125 -17.8125 C 8.894531 -17.8125 7.867188 -17.582031 7.203125 -17.125 C 6.535156 -16.675781 6.203125 -16.085938 6.203125 -15.359375 C 6.203125 -14.617188 6.582031 -14.070312 7.34375 -13.71875 C 8.113281 -13.363281 9.285156 -13.015625 10.859375 -12.671875 C 12.492188 -12.273438 13.828125 -11.882812 14.859375 -11.5 C 15.898438 -11.113281 16.789062 -10.5 17.53125 -9.65625 C 18.28125 -8.820312 18.65625 -7.691406 18.65625 -6.265625 C 18.65625 -5.046875 18.3125 -3.929688 17.625 -2.921875 C 16.945312 -1.910156 15.925781 -1.109375 14.5625 -0.515625 C 13.195312 0.0664062 11.535156 0.359375 9.578125 0.359375 Z M 9.578125 0.359375 "/></g></g></g><g fill="#2b3825" fill-opacity="1"><g transform="translate(150.486548, 245.419745)"><g><path d="M 7.5 -17.4375 L 7.5 -11.78125 L 17.40625 -11.78125 L 17.40625 -7.796875 L 7.5 -7.796875 L 7.5 0 L 2.546875 0 L 2.546875 -21.421875 L 18.71875 -21.421875 L 18.71875 -17.4375 Z M 7.5 -17.4375 "/></g></g></g><g fill="#2b3825" fill-opacity="1"><g transform="translate(170.795812, 245.419745)"><g><path d="M 16.1875 0 L 12.046875 -5.96875 L 7.5 -5.96875 L 7.5 0 L 2.546875 0 L 2.546875 -21.421875 L 11.8125 -21.421875 C 13.707031 -21.421875 15.351562 -21.101562 16.75 -20.46875 C 18.144531 -19.832031 19.21875 -18.929688 19.96875 -17.765625 C 20.726562 -16.609375 21.109375 -15.234375 21.109375 -13.640625 C 21.109375 -12.054688 20.722656 -10.6875 19.953125 -9.53125 C 19.191406 -8.375 18.109375 -7.492188 16.703125 -6.890625 L 21.5 0 Z M 16.09375 -13.640625 C 16.09375 -14.847656 15.703125 -15.769531 14.921875 -16.40625 C 14.148438 -17.050781 13.019531 -17.375 11.53125 -17.375 L 7.5 -17.375 L 7.5 -9.90625 L 11.53125 -9.90625 C 13.019531 -9.90625 14.148438 -10.234375 14.921875 -10.890625 C 15.703125 -11.546875 16.09375 -12.460938 16.09375 -13.640625 Z M 16.09375 -13.640625 "/></g></g></g><g fill="#2b3825" fill-opacity="1"><g transform="translate(194.04133, 245.419745)"><g><path d="M 22.1875 -21.421875 L 22.1875 0 L 18.109375 0 L 7.4375 -13 L 7.4375 0 L 2.546875 0 L 2.546875 -21.421875 L 6.640625 -21.421875 L 17.28125 -8.40625 L 17.28125 -21.421875 Z M 22.1875 -21.421875 "/></g></g></g><g fill="#2b3825" fill-opacity="1"><g transform="translate(219.51963, 245.419745)"><g><path d="M 2.546875 -21.421875 L 12.265625 -21.421875 C 14.585938 -21.421875 16.640625 -20.972656 18.421875 -20.078125 C 20.210938 -19.191406 21.601562 -17.941406 22.59375 -16.328125 C 23.582031 -14.722656 24.078125 -12.847656 24.078125 -10.703125 C 24.078125 -8.566406 23.582031 -6.691406 22.59375 -5.078125 C 21.601562 -3.460938 20.210938 -2.210938 18.421875 -1.328125 C 16.640625 -0.441406 14.585938 0 12.265625 0 L 2.546875 0 Z M 12.015625 -4.0625 C 14.160156 -4.0625 15.867188 -4.65625 17.140625 -5.84375 C 18.421875 -7.039062 19.0625 -8.660156 19.0625 -10.703125 C 19.0625 -12.742188 18.421875 -14.359375 17.140625 -15.546875 C 15.867188 -16.742188 14.160156 -17.34375 12.015625 -17.34375 L 7.5 -17.34375 L 7.5 -4.0625 Z M 12.015625 -4.0625 "/></g></g></g></svg>